# xmcd
#
# Track frame offsets: 
#        150
#        14297
#        31796
#        43502
#        63855
#        79940
#        99733
#        121529
#        137782
#        159913
#        177246
#        189963
#        203802
#        219063
#        234017
#        255638
#        273241
#        291586
#        312257
#
# Disc length: 4487 seconds
#
# Revision: 13
# Processed by: cddbd v1.5.2PL0 Copyright (c) Steve Scherf et al.
# Submitted via: ExactAudioCopy v1.0b1
#
DISCID=f4118513
DTITLE=Willie Nelson - The Essential Willie Nelson Disc 2
DYEAR=2003
DGENRE=Country
TTITLE0=Willie Nelson - My Heroes Have Always Been Cowboys
TTITLE1=Willie Nelson and Ray Price - Faded Love
TTITLE2=Willie Nelson - On The Road Again
TTITLE3=Willie Nelson - Angel Flying Too Close To The Ground
TTITLE4=Willie Nelson - Always On My Mind
TTITLE5=Willie Nelson - Last Thing I Needed First Thing This Morning
TTITLE6=Willie Nelson and Merle Haggard - Pancho And Lefty
TTITLE7=Willie Nelson and Julio Iglesias - To All The Girls I've Loved B
TTITLE7=efore
TTITLE8=Willie Nelson - City Of New Orleans
TTITLE9=Willie Nelson and Ray Charles - Seven Spanish Angels
TTITLE10=Willie Nelson - Forgiving You Was Easy
TTITLE11=Willie Nelson, Waylon Jennings, Johnny Cash and Kris Kristoffer
TTITLE11=son - Highwayman
TTITLE12=Willie Nelson - Living In The Promiseland
TTITLE13=Willie Nelson - Nothing I Can Do About It Now
TTITLE14=Willie Nelson - Graceland
TTITLE15=Willie Nelson and Emmylou Harris - Everywhere I Go
TTITLE16=Willie Nelson and U2 - Slow Dancing
TTITLE17=Willie Nelson and Lee Ann Womack - Mendocino County Line
TTITLE18=Willie Nelson, Steven Tyler and Aerosmith - One Time Too Many
EXTD=Year: 2003 YEAR: 2003
EXTT0=
EXTT1=
EXTT2=
EXTT3=
EXTT4=
EXTT5=
EXTT6=
EXTT7=
EXTT8=
EXTT9=
EXTT10=
EXTT11=
EXTT12=
EXTT13=
EXTT14=
EXTT15=
EXTT16=
EXTT17=
EXTT18=
PLAYORDER=
